<svg width="272" height="63" viewBox="0 0 272 63" fill="none" xmlns="http://www.w3.org/2000/svg">
<rect y="51.6143" width="2.58065" height="10.3226" fill="#5E5E5E"/>
<rect x="6.4502" y="41.291" width="2.58065" height="20.6452" fill="#5E5E5E"/>
<rect x="12.9033" y="30.9688" width="2.58065" height="30.9677" fill="#5E5E5E"/>
<rect x="19.3545" y="20.6465" width="2.58065" height="41.2903" fill="#5E5E5E"/>
<rect x="25.8066" y="36.1299" width="2.58065" height="25.8065" fill="#5E5E5E"/>
<rect x="32.2578" y="25.8076" width="2.58065" height="36.129" fill="#5E5E5E"/>
<rect x="38.71" y="46.4512" width="2.58065" height="15.4839" fill="#5E5E5E"/>
<rect x="51.6143" y="33.5508" width="2.58065" height="28.3871" fill="#5E5E5E"/>
<rect x="58" y="43.8711" width="2.58065" height="18.0645" fill="#5E5E5E"/>
<rect x="65" y="49.0312" width="2.58065" height="12.9032" fill="#5E5E5E"/>
<rect x="157" y="51.6143" width="2.58065" height="10.3226" fill="#5E5E5E"/>
<rect x="163.45" y="41.291" width="2.58065" height="20.6452" fill="#5E5E5E"/>
<rect x="169.903" y="30.9688" width="2.58065" height="30.9677" fill="#5E5E5E"/>
<rect x="176.354" y="20.6465" width="2.58065" height="41.2903" fill="#5E5E5E"/>
<rect x="182.807" y="36.1299" width="2.58065" height="25.8065" fill="#5E5E5E"/>
<rect x="189.258" y="25.8076" width="2.58065" height="36.129" fill="#5E5E5E"/>
<rect x="195.71" y="46.4512" width="2.58065" height="15.4839" fill="#5E5E5E"/>
<rect x="208.614" y="33.5508" width="2.58065" height="28.3871" fill="#5E5E5E"/>
<rect x="215" y="43.8711" width="2.58065" height="18.0645" fill="#5E5E5E"/>
<rect x="222" y="49.0312" width="2.58065" height="12.9032" fill="#5E5E5E"/>
<rect x="72" y="51.7119" width="2.58065" height="10.3226" fill="#5E5E5E"/>
<rect x="78.4502" y="41.3887" width="2.58065" height="20.6452" fill="#5E5E5E"/>
<rect x="84.9033" y="31.0664" width="2.58065" height="30.9677" fill="#5E5E5E"/>
<rect x="91.3545" y="20.7441" width="2.58065" height="41.2903" fill="#5E5E5E"/>
<rect x="97.8066" y="36.2275" width="2.58065" height="25.8065" fill="#5E5E5E"/>
<rect x="104.258" y="25.9053" width="2.58065" height="36.129" fill="#5E5E5E"/>
<rect x="110.71" y="46.5488" width="2.58065" height="15.4839" fill="#5E5E5E"/>
<rect x="123.614" y="33.6484" width="2.58065" height="28.3871" fill="#5E5E5E"/>
<rect x="136.518" y="43.9697" width="2.58065" height="18.0645" fill="#5E5E5E"/>
<rect x="149.418" y="49.1309" width="2.58065" height="12.9032" fill="#5E5E5E"/>
<rect x="229" y="51.7109" width="2.58065" height="10.3226" fill="#5E5E5E"/>
<rect x="235.449" y="41.3867" width="2.58065" height="20.6452" fill="#5E5E5E"/>
<rect x="241.902" y="31.0664" width="2.58065" height="30.9677" fill="#5E5E5E"/>
<rect x="248.355" y="20.7461" width="2.58065" height="41.2903" fill="#5E5E5E"/>
<rect x="254.809" y="36.2266" width="2.58065" height="25.8065" fill="#5E5E5E"/>
<rect x="261.258" y="25.9062" width="2.58065" height="36.129" fill="#5E5E5E"/>
<rect x="267.711" y="46.5508" width="2.58065" height="15.4839" fill="#5E5E5E"/>
</svg>
