<svg xmlns="http://www.w3.org/2000/svg" width="272" height="63" fill="none" viewBox="0 0 272 63"><path fill="#5e5e5e" d="M0 51.614h2.581v10.323H0zM6.45 41.291h2.581v20.645H6.45zM12.903 30.969h2.581v30.968h-2.581zM19.355 20.646h2.581v41.29h-2.581zM25.807 36.13h2.581v25.806h-2.581zM32.258 25.808h2.581v36.129h-2.581zM38.71 46.451h2.581v15.484H38.71zM51.614 33.551h2.581v28.387h-2.581zM58 43.871h2.581v18.064H58zM65 49.031h2.581v12.903H65zM157 51.614h2.581v10.323H157zM163.45 41.291h2.581v20.645h-2.581zM169.903 30.969h2.581v30.968h-2.581zM176.354 20.646h2.581v41.29h-2.581zM182.807 36.13h2.581v25.806h-2.581zM189.258 25.808h2.581v36.129h-2.581zM195.71 46.451h2.581v15.484h-2.581zM208.614 33.551h2.581v28.387h-2.581zM215 43.871h2.581v18.064H215zM222 49.031h2.581v12.903H222zM72 51.712h2.581v10.323H72zM78.45 41.389h2.581v20.645H78.45zM84.903 31.066h2.581v30.968h-2.581zM91.355 20.744h2.581v41.29h-2.581zM97.807 36.227h2.581v25.806h-2.581zM104.258 25.905h2.581v36.129h-2.581zM110.71 46.549h2.581v15.484h-2.581zM123.614 33.648h2.581v28.387h-2.581zM136.518 43.97h2.581v18.064h-2.581zM149.418 49.131h2.581v12.903h-2.581zM229 51.711h2.581v10.323H229zM235.449 41.387h2.581v20.645h-2.581zM241.902 31.066h2.581v30.968h-2.581zM248.355 20.746h2.581v41.29h-2.581zM254.809 36.227h2.581v25.806h-2.581zM261.258 25.906h2.581v36.129h-2.581zM267.711 46.551h2.581v15.484h-2.581z"/></svg>