<svg xmlns="http://www.w3.org/2000/svg" width="19" height="20" fill="none" viewBox="0 0 19 20"><path fill="#dfdfdf" fill-rule="evenodd" d="M9.345 19.999 9.5 20a9.2 9.2 0 0 1-2.29-.292 9 9 0 0 1-.854-.268l-.001-.001a9.2 9.2 0 0 1-2.232-1.194 9.6 9.6 0 0 1-1.222-1.052C1.112 15.376 0 12.825 0 10 0 4.477 4.253 0 9.5 0a9.1 9.1 0 0 1 3.636.761 9.5 9.5 0 0 1 3.082 2.168 10 10 0 0 1 2.059 3.244C18.754 7.386 19 8.687 19 10c0 2.824-1.112 5.375-2.9 7.194q-.002 0 0 0-.677.687-1.468 1.223l-.008.005q-.179.12-.363.233l-.013.008a9.4 9.4 0 0 1-1.755.83 10 10 0 0 1-.867.256 9.036 9.036 0 0 1-1.807.246h-.002a9 9 0 0 1-.472.004M10.45 14h-1.9c-1.513 0-2.837.937-3.445 2.308l-.07.166.06.046A7.33 7.33 0 0 0 9 17.983l-.12-.01.123.01h-.003l.122.007-.12-.007.128.008h-.008l.092.003L9.5 18l.12-.001.13-.003-.12.003.122-.003H9.75l.122-.005-.12.005.125-.006h-.005l.127-.007-.122.007.123-.007H10l.123-.01-.122.01.126-.01h-.004l.12-.01-.116.01.124-.011h-.009a7.33 7.33 0 0 0 3.657-1.437l.065-.051-.068-.166c-.582-1.31-1.818-2.226-3.249-2.303zM9.5 2c-4.197 0-7.6 3.582-7.6 8a8.23 8.23 0 0 0 1.694 5.035C4.574 13.222 6.427 12 8.55 12h1.9c2.123 0 3.976 1.222 4.956 3.035A8.23 8.23 0 0 0 17.1 10c0-4.418-3.403-8-7.6-8m0 1c2.099 0 3.8 1.79 3.8 4 0 2.142-1.6 3.891-3.61 3.995L9.5 11c-2.099 0-3.8-1.79-3.8-4 0-2.142 1.6-3.891 3.61-3.995zm0 2c-1.05 0-1.9.895-1.9 2s.85 2 1.9 2 1.9-.895 1.9-2-.85-2-1.9-2" clip-rule="evenodd"/></svg>