<svg xmlns="http://www.w3.org/2000/svg" width="26" height="24" fill="none" viewBox="0 0 26 24"><path stroke="#dfdfdf" stroke-linecap="round" stroke-linejoin="round" stroke-width="2" d="M17.08 6.397h-.06m4.02 0h-.06m-3.84 0a.12.12 0 1 1-.24 0 .12.12 0 0 1 .24 0m3.96 0a.12.12 0 1 1-.24 0 .12.12 0 0 1 .24 0"/><path stroke="#dfdfdf" stroke-linecap="round" stroke-linejoin="round" stroke-width="2" d="M25 6.74c0 3.17-2.687 5.74-6 5.74a6.3 6.3 0 0 1-1.16-.108l-.03-.005c-.256-.047-.388-.071-.48-.057-.094.014-.227.084-.486.221l-.02.01a3.9 3.9 0 0 1-2.533.395c.33-.409.554-.893.652-1.41.06-.318-.089-.626-.31-.852A5.6 5.6 0 0 1 13 6.74C13 3.57 15.687 1 19 1s6 2.57 6 5.74M10.326 14.378a3.6 3.6 0 1 0-6.652-2.756 3.6 3.6 0 0 0 6.652 2.755"/><path stroke="#dfdfdf" stroke-linecap="round" stroke-linejoin="round" stroke-width="2" d="M13 22.598a6 6 0 0 0-12 0"/></svg>