<svg xmlns="http://www.w3.org/2000/svg" width="18" height="22" fill="none" viewBox="0 0 18 22"><path fill="#dfdfdf" d="M9 0a4.55 4.55 0 0 0-3.182 1.289A4.35 4.35 0 0 0 4.5 4.4c0 1.167.474 2.286 1.318 3.111A4.55 4.55 0 0 0 9 8.8a4.55 4.55 0 0 0 3.182-1.289A4.35 4.35 0 0 0 13.5 4.4a4.35 4.35 0 0 0-1.318-3.111A4.55 4.55 0 0 0 9 0M6.75 4.4c0-.583.237-1.143.659-1.556A2.28 2.28 0 0 1 9 2.2c.597 0 1.169.232 1.591.644s.659.973.659 1.556-.237 1.143-.659 1.556A2.28 2.28 0 0 1 9 6.6a2.28 2.28 0 0 1-1.591-.644A2.17 2.17 0 0 1 6.75 4.4m7.875 6.6H3.375c-.895 0-1.754.348-2.386.966A3.26 3.26 0 0 0 0 14.3c0 2.455 1.033 4.422 2.727 5.753C4.394 21.362 6.631 22 9 22c2.37 0 4.606-.638 6.273-1.947C16.965 18.722 18 16.755 18 14.3c0-.875-.356-1.715-.988-2.334A3.42 3.42 0 0 0 14.625 11m-11.25 2.2h11.25c.298 0 .585.116.796.322.21.207.329.486.329.778 0 1.797-.731 3.13-1.886 4.037C12.682 19.265 10.98 19.8 9 19.8s-3.681-.535-4.864-1.463C2.98 17.431 2.25 16.097 2.25 14.3c0-.292.119-.572.33-.778.21-.206.497-.322.795-.322"/></svg>