<svg xmlns="http://www.w3.org/2000/svg" width="21" height="21" fill="none" viewBox="0 0 21 21"><path fill="#dfdfdf" d="M10.122 0c5.59 0 10.122 4.532 10.122 10.122s-4.531 10.122-10.122 10.122C4.532 20.244 0 15.713 0 10.122 0 4.532 4.532 0 10.122 0m0 2.024a8.098 8.098 0 1 0 0 16.196 8.098 8.098 0 0 0 0-16.196m0 12.147a1.013 1.013 0 1 1 0 2.025 1.013 1.013 0 0 1 0-2.025m0-9.616a3.67 3.67 0 0 1 1.365 7.075.8.8 0 0 0-.309.204c-.045.05-.052.115-.05.182l.006.13a1.012 1.012 0 0 1-2.017.12l-.007-.12v-.252c0-1.168.941-1.868 1.624-2.142a1.645 1.645 0 1 0-2.257-1.528 1.012 1.012 0 1 1-2.024 0 3.67 3.67 0 0 1 3.67-3.669"/></svg>